<svg width="73" height="73" viewBox="0 0 73 73" fill="none" xmlns="http://www.w3.org/2000/svg">
<g filter="url(#filter0_d)">
<path d="M44.1172 43.9258C43.4165 43.9258 42.8477 44.4946 42.8477 45.1953C42.8477 45.896 43.4165 46.4648 44.1172 46.4648C44.8179 46.4648 45.3867 45.896 45.3867 45.1953C45.3867 44.4946 44.8179 43.9258 44.1172 43.9258Z" fill="#9D9D9D"/>
<path d="M62.6523 0H10.3477C6.84752 0 4 2.84752 4 6.34766V45.1953C4 48.6954 6.84752 51.543 10.3477 51.543H30.1523V57.3828H28.8828C27.1878 57.3828 25.5944 58.0434 24.3948 59.2425C23.1957 60.4421 22.5352 62.0354 22.5352 63.7305C22.5352 64.4317 23.1035 65 23.8047 65H49.1953C49.8965 65 50.4648 64.4317 50.4648 63.7305C50.4648 60.2303 47.6173 57.3828 44.1172 57.3828H42.8477V51.543H62.6523C66.1525 51.543 69 48.6954 69 45.1953V6.34766C69 2.84752 66.1525 0 62.6523 0ZM10.3477 2.53906H62.6523C64.7525 2.53906 66.4609 4.24747 66.4609 6.34766V38.8477H60.6211V9.64844C60.6211 8.94722 60.0528 8.37891 59.3516 8.37891H49.1953C48.4941 8.37891 47.9258 8.94722 47.9258 9.64844V38.8477H41.5712C41.5578 37.5345 41.5236 36.2402 41.469 34.9845C41.2469 29.8141 40.7405 26.3507 40.4772 24.8273C43.0966 22.8987 43.8117 19.3242 42.2104 16.5471L37.8102 8.9259C37.5831 8.53313 37.164 8.29113 36.7108 8.29113C36.257 8.29113 35.838 8.53313 35.6113 8.9259L31.2091 16.5475C29.6996 19.166 30.2347 22.5575 32.6061 24.559C32.3314 26.078 31.7769 29.6654 31.5359 34.982C31.4789 36.2511 31.4427 37.5464 31.4288 38.8477H25.0742V19.8047C25.0742 19.6033 25.0266 19.4199 24.9488 19.2567C24.9453 19.2503 24.9433 19.2433 24.9403 19.2369L19.8622 9.08062C19.647 8.65067 19.2076 8.37891 18.7266 8.37891C18.2455 8.37891 17.8062 8.65067 17.5909 9.08062L12.5128 19.2369C12.5098 19.2433 12.5078 19.2503 12.5049 19.2567C12.4255 19.4213 12.3789 19.6078 12.3789 19.8047V38.8477H6.53906V6.34766C6.53906 4.24747 8.24747 2.53906 10.3477 2.53906ZM50.4648 38.8477V10.918H58.082V13.457H56.8125C56.1113 13.457 55.543 14.0253 55.543 14.7266C55.543 15.4278 56.1113 15.9961 56.8125 15.9961H58.082V19.8047H56.8125C56.1113 19.8047 55.543 20.373 55.543 21.0742C55.543 21.7754 56.1113 22.3438 56.8125 22.3438H58.082V26.1523H56.8125C56.1113 26.1523 55.543 26.7207 55.543 27.4219C55.543 28.1231 56.1113 28.6914 56.8125 28.6914H58.082V33.7695H56.8125C56.1113 33.7695 55.543 34.3378 55.543 35.0391C55.543 35.7403 56.1113 36.3086 56.8125 36.3086H58.082V38.8477H50.4648ZM36.7108 26.0646C37.172 26.0646 37.6312 26.0115 38.0805 25.9123C38.316 27.4224 38.6622 30.0943 38.867 33.7695H34.1414C34.3562 30.0968 34.7187 27.3832 34.9691 25.8221C35.5315 25.9822 36.1172 26.0646 36.7108 26.0646ZM36.7108 23.5255C33.8092 23.5255 31.9381 20.3675 33.4085 17.8166L36.7108 12.0997L40.011 17.8161C41.476 20.3566 39.6307 23.5255 36.7108 23.5255ZM34.0249 36.3086H38.9786C39.0053 37.1427 39.0237 37.9912 39.0326 38.8477H33.9679C33.9773 37.9967 33.9966 37.1482 34.0249 36.3086ZM19.9961 38.8477V21.0742H22.5352V38.8477H19.9961ZM14.918 38.8477V21.0742H17.457V38.8477H14.918ZM15.7025 18.5352L18.7266 12.487L21.7506 18.5352H15.7025ZM47.7081 62.4609H25.2904C25.4769 61.9318 25.7814 61.4468 26.19 61.0377C26.9101 60.3181 27.8662 59.9219 28.8828 59.9219H44.1172C45.7725 59.9219 47.1844 60.9831 47.7081 62.4609ZM40.3086 57.3828H32.6914V51.543H40.3086V57.3828ZM62.6523 49.0039H10.3477C8.24747 49.0039 6.53906 47.2955 6.53906 45.1953V41.3867H66.4609V45.1953C66.4609 47.2955 64.7525 49.0039 62.6523 49.0039Z" fill="#9D9D9D"/>
<path d="M39.0391 43.9258H31.4219C30.7207 43.9258 30.1523 44.4941 30.1523 45.1953C30.1523 45.8965 30.7207 46.4648 31.4219 46.4648H39.0391C39.7403 46.4648 40.3086 45.8965 40.3086 45.1953C40.3086 44.4941 39.7403 43.9258 39.0391 43.9258Z" fill="#9D9D9D"/>
</g>
<defs>
<filter id="filter0_d" x="0" y="0" width="73" height="73" filterUnits="userSpaceOnUse" color-interpolation-filters="sRGB">
<feFlood flood-opacity="0" result="BackgroundImageFix"/>
<feColorMatrix in="SourceAlpha" type="matrix" values="0 0 0 0 0 0 0 0 0 0 0 0 0 0 0 0 0 0 127 0" result="hardAlpha"/>
<feOffset dy="4"/>
<feGaussianBlur stdDeviation="2"/>
<feComposite in2="hardAlpha" operator="out"/>
<feColorMatrix type="matrix" values="0 0 0 0 0 0 0 0 0 0 0 0 0 0 0 0 0 0 0.25 0"/>
<feBlend mode="normal" in2="BackgroundImageFix" result="effect1_dropShadow"/>
<feBlend mode="normal" in="SourceGraphic" in2="effect1_dropShadow" result="shape"/>
</filter>
</defs>
</svg>
